# xmcd CD database file
#
# Track frame offsets:
#	150
#	17870
#	31737
#	45732
#	60332
#	74294
#	87664
#	106658
#	120426
#	133752
#	146927
#	159403
#	173288
#	186820
#	200472
#
# Disc length: 2868 seconds
#
# Revision: 1
# Processed by: cddbd v1.5.2PL0 Copyright (c) Steve Scherf et al.
# Submitted via: CDex 1.51
#
DISCID=c50b320f
DTITLE=Various Artist - Baladão do Faustão
DYEAR=1900
DGENRE=Country
TTITLE0=Pot-Pourri
TTITLE1=Assim Você Mata o Papai
TTITLE2=Lê Lê Lê
TTITLE3=Balada
TTITLE4=Eu Quero Tchu Eu Quero Tcha
TTITLE5=Vem Dançar Com Tudo (Vem Dançar Kuduro)
TTITLE6=Pot-Pourri
TTITLE7=Camaro Amarelo
TTITLE8=Correndo Atrás de Mim
TTITLE9=Cachorro Perigoso
TTITLE10=É Tenso
TTITLE11=Se Você Me Der
TTITLE12=Ex Mai Love
TTITLE13=Ricardão
TTITLE14=Someone Like You
EXTD=
EXTT0=
EXTT1=
EXTT2=
EXTT3=
EXTT4=
EXTT5=
EXTT6=
EXTT7=
EXTT8=
EXTT9=
EXTT10=
EXTT11=
EXTT12=
EXTT13=
EXTT14=
PLAYORDER=
